<?xml version="1.0" encoding="UTF-8" standalone="no"?>
<svg
   data-v-fde0c5aa=""
   viewBox="0 0 260 156.78899"
   class="iconLeft"
   version="1.1"
   id="svg3"
   width="260"
   height="156.78899"
   xml:space="preserve"
   xmlns:xlink="http://www.w3.org/1999/xlink"
   xmlns="http://www.w3.org/2000/svg"
   xmlns:svg="http://www.w3.org/2000/svg"><!----><defs
     data-v-fde0c5aa=""
     id="defs1"><!----><linearGradient
       data-v-fde0c5aa=""
       gradientTransform="rotate(25)"
       id="500b972f-9590-4f45-ae23-6775c0a01154"
       x1="0"
       y1="0"
       x2="1"
       y2="0"><stop
         data-v-fde0c5aa=""
         offset="0%"
         stop-color="#4B279B"
         stop-opacity="1"
         id="stop2-4" /><stop
         data-v-fde0c5aa=""
         offset="100%"
         stop-color="#DF99D8"
         stop-opacity="1"
         id="stop3-5" /></linearGradient><linearGradient
       xlink:href="#500b972f-9590-4f45-ae23-6775c0a01154"
       id="linearGradient8"
       x1="0"
       y1="0"
       x2="32"
       y2="0"
       gradientUnits="userSpaceOnUse" /><linearGradient
       xlink:href="#500b972f-9590-4f45-ae23-6775c0a01154"
       id="linearGradient9"
       x1="0"
       y1="0"
       x2="32"
       y2="0"
       gradientUnits="userSpaceOnUse" /></defs><defs
     data-v-fde0c5aa=""
     id="defs2"><!----></defs><defs
     data-v-fde0c5aa=""
     id="defs3" /><!----><g
     id="g8"
     transform="translate(-372.01233,-50.164082)"><rect
       data-v-fde0c5aa=""
       fill="#ebe2f2"
       x="0"
       y="0"
       width="300"
       height="300"
       class="logo-background-square"
       id="rect1-8" /><g
       data-v-fde0c5aa=""
       id="058e1d34-cc4b-44f5-b190-12e7972918b5"
       fill="#2b1c36"
       transform="matrix(2.6128029,0,0,2.6128029,370.5753,148.34786)"><path
         d="m 9.81,5.98 v 0 C 9.81,6.5666667 9.7533333,7.09 9.64,7.55 9.52,8.0166667 9.36,8.42 9.16,8.76 8.96,9.1 8.7266667,9.39 8.46,9.63 8.1933333,9.8766667 7.9066667,10.076667 7.6,10.23 v 0 l 2,2.03 H 6.69 L 5.26,10.71 c 0.013333,0.0067 0.013333,0.01 0,0.01 v 0 C 5.25333,10.73333 5.2,10.74 5.1,10.74 v 0 C 4.7866667,10.74 4.46,10.71 4.12,10.65 3.78,10.596667 3.4433333,10.5 3.11,10.36 2.77,10.22 2.4466667,10.036667 2.14,9.81 1.8333333,9.5766667 1.56,9.2833333 1.32,8.93 1.0866667,8.5766667 0.9,8.1566667 0.76,7.67 0.62,7.1833333 0.55,6.62 0.55,5.98 v 0 C 0.55,5.3333333 0.62,4.7666667 0.76,4.28 0.90666667,3.8 1.1,3.38 1.34,3.02 1.5866667,2.6666667 1.8666667,2.3733333 2.18,2.14 2.5,1.9066667 2.83,1.72 3.17,1.58 3.51,1.44 3.8533333,1.3433333 4.2,1.29 4.5466667,1.23 4.8733333,1.2 5.18,1.2 v 0 C 5.4866667,1.2 5.8166667,1.23 6.17,1.29 6.53,1.343333 6.88,1.44 7.22,1.58 7.56,1.72 7.8866667,1.9066667 8.2,2.14 8.5133333,2.3733333 8.79,2.6666667 9.03,3.02 9.27,3.38 9.46,3.8 9.6,4.28 9.74,4.7666667 9.81,5.3333333 9.81,5.98 Z M 3.25,5.96 v 0 c 0,0.3866667 0.03,0.75 0.09,1.09 0.06,0.34 0.1633333,0.6433333 0.31,0.91 0.1533333,0.2666667 0.3533333,0.4766667 0.6,0.63 0.2466667,0.1533333 0.5566667,0.23 0.93,0.23 v 0 C 5.5533333,8.82 5.8666667,8.7433333 6.12,8.59 6.3733333,8.4366667 6.5733333,8.23 6.72,7.97 6.8666667,7.7033333 6.9733333,7.4 7.04,7.06 7.1,6.72 7.13,6.36 7.13,5.98 v 0 C 7.13,5.58 7.1,5.2033333 7.04,4.85 6.9733333,4.5033333 6.8666667,4.2 6.72,3.94 6.5733333,3.6866667 6.3733333,3.4866667 6.12,3.34 5.8666667,3.1933333 5.5533333,3.12 5.18,3.12 v 0 C 4.8066667,3.12 4.4966667,3.1933333 4.25,3.34 4.0033333,3.4866667 3.8033333,3.6866667 3.65,3.94 3.5033333,4.2 3.4,4.5 3.34,4.84 3.28,5.1866667 3.25,5.56 3.25,5.96 Z m 10.99,4.69 v 0 c -0.373333,0 -0.743333,-0.03667 -1.11,-0.11 -0.373333,-0.07333 -0.706667,-0.226667 -1,-0.46 C 11.836667,9.8466667 11.596667,9.5166667 11.41,9.09 11.223333,8.6566667 11.13,8.08 11.13,7.36 v 0 -4.14 h 2.34 v 3.3 c 0,0.6933333 0.11,1.22 0.33,1.58 0.226667,0.36 0.55,0.54 0.97,0.54 v 0 c 0.3,0 0.553333,-0.066667 0.76,-0.2 0.2,-0.1266667 0.363333,-0.3066667 0.49,-0.54 0.126667,-0.2266667 0.22,-0.5 0.28,-0.82 0.05333,-0.3133333 0.08,-0.6566667 0.08,-1.03 v 0 -2.83 H 18.9 V 10.5 H 17.01 L 16.59,9.13 16.46,9.37 c -0.08,0.1533333 -0.213333,0.3266667 -0.4,0.52 -0.186667,0.193333 -0.43,0.37 -0.73,0.53 -0.3,0.153333 -0.663333,0.23 -1.09,0.23 z M 27.41,5.77 v 4.73 h -2 L 25.16,9.39 c -0.3,0.44 -0.633333,0.76 -1,0.96 -0.36,0.2 -0.796667,0.3 -1.31,0.3 v 0 c -0.366667,0 -0.713333,-0.04333 -1.04,-0.13 C 21.476667,10.43333 21.183333,10.303333 20.93,10.13 20.676667,9.9566667 20.476667,9.74 20.33,9.48 20.176667,9.22 20.1,8.9166667 20.1,8.57 v 0 C 20.0933,8.1033333 20.16333,7.71 20.31,7.39 20.45,7.0766667 20.65,6.8166667 20.91,6.61 21.163333,6.4033333 21.46,6.2433333 21.8,6.13 22.133333,6.0166667 22.486667,5.94 22.86,5.9 23.226667,5.86 23.6,5.84 23.98,5.84 c 0.373333,0.00667 0.73,0.02 1.07,0.04 v 0 -0.04 C 25.05,5.4733333 24.95333,5.2033333 24.76,5.03 24.566667,4.8566667 24.33,4.7466667 24.05,4.7 23.763333,4.653333 23.45,4.656667 23.11,4.71 22.77,4.763333 22.45,4.83 22.15,4.91 21.85,4.996667 21.593333,5.0833333 21.38,5.17 21.166667,5.25 21.043333,5.3 21.01,5.32 v 0 -1.74 C 21.02333,3.57333 21.116667,3.543333 21.29,3.49 21.463333,3.43 21.68,3.3666667 21.94,3.3 22.2,3.24 22.49,3.18 22.81,3.12 23.123333,3.066667 23.433333,3.04 23.74,3.04 v 0 c 0.313333,0 0.68,0.036667 1.1,0.11 0.42,0.073333 0.82,0.21 1.2,0.41 0.38,0.2 0.703333,0.48 0.97,0.84 0.266667,0.3533333 0.4,0.81 0.4,1.37 z M 25.03,7.52 V 7.25 c -0.306667,0 -0.61,0.00333 -0.91,0.01 -0.306667,0.00667 -0.583333,0.033333 -0.83,0.08 -0.246667,0.053333 -0.446667,0.1433333 -0.6,0.27 -0.146667,0.1266667 -0.22,0.31 -0.22,0.55 v 0 c 0,0.26 0.08,0.4633333 0.24,0.61 0.16,0.1466667 0.336667,0.22 0.53,0.22 v 0 c 0.26,0 0.5,-0.036667 0.72,-0.11 0.22,-0.08 0.41,-0.1866667 0.57,-0.32 0.16,-0.1333333 0.283333,-0.29 0.37,-0.47 0.08667,-0.1733333 0.13,-0.3633333 0.13,-0.57 z m 8.51,-4.48 v 0 c 0.373333,0 0.746667,0.036667 1.12,0.11 0.366667,0.073333 0.696667,0.2266667 0.99,0.46 0.293333,0.2333333 0.533333,0.5666667 0.72,1 0.186667,0.4333333 0.28,1.0066667 0.28,1.72 v 0 4.17 H 34.31 V 7.17 C 34.31,6.4766667 34.2,5.95 33.98,5.59 33.753333,5.23 33.43,5.05 33.01,5.05 v 0 c -0.3,0 -0.55,0.066667 -0.75,0.2 -0.206667,0.1333333 -0.373333,0.3166667 -0.5,0.55 -0.126667,0.2333333 -0.216667,0.5066667 -0.27,0.82 -0.06,0.3066667 -0.09,0.6466667 -0.09,1.02 v 0 2.86 H 28.88 V 3.22 h 1.89 l 0.42,1.34 0.13,-0.23 c 0.08,-0.16 0.213333,-0.3366667 0.4,-0.53 0.186667,-0.1933333 0.43,-0.3666667 0.73,-0.52 0.3,-0.16 0.663333,-0.24 1.09,-0.24 z m 8.63,5.93 v 0 c 0.126667,0 0.256667,-0.00333 0.39,-0.01 0.133333,-0.00667 0.25,-0.02 0.35,-0.04 v 0 C 43.03,8.9 43.146667,8.876667 43.26,8.85 v 0 l -0.03,1.58 c -0.16,0.04 -0.326667,0.07667 -0.5,0.11 v 0 c -0.16,0.02667 -0.343333,0.05333 -0.55,0.08 -0.213333,0.02 -0.44,0.03 -0.68,0.03 v 0 c -0.466667,-0.02667 -0.886667,-0.123333 -1.26,-0.29 v 0 C 40.08,10.286667 39.923333,10.193333 39.77,10.08 39.623333,9.9666667 39.493333,9.8266667 39.38,9.66 39.26,9.4933333 39.166667,9.3 39.1,9.08 39.026667,8.86 38.99,8.6 38.99,8.3 v 0 -2.77 H 37.56 V 3.75 h 1.47 l 0.45,-2.29 h 2.02 v 2.29 h 1.79 v 1.78 h -1.77 v 2.8 c 0.02,0.2333333 0.08333,0.4 0.19,0.5 0.106667,0.093333 0.26,0.14 0.46,0.14 z m 5.28,1.68 v 0 c -0.373333,0 -0.746667,-0.03667 -1.12,-0.11 C 45.963333,10.46667 45.633333,10.313333 45.34,10.08 45.046667,9.8466667 44.806667,9.5166667 44.62,9.09 44.433333,8.6566667 44.34,8.08 44.34,7.36 v 0 -4.14 h 2.34 v 3.3 c 0,0.6933333 0.11,1.22 0.33,1.58 0.226667,0.36 0.55,0.54 0.97,0.54 v 0 c 0.3,0 0.55,-0.066667 0.75,-0.2 0.206667,-0.1266667 0.373333,-0.3066667 0.5,-0.54 0.126667,-0.2266667 0.216667,-0.5 0.27,-0.82 0.06,-0.3133333 0.09,-0.6566667 0.09,-1.03 v 0 -2.83 h 2.52 V 10.5 H 50.22 L 49.8,9.13 49.67,9.37 c -0.08,0.1533333 -0.213333,0.3266667 -0.4,0.52 -0.186667,0.193333 -0.43,0.37 -0.73,0.53 -0.3,0.153333 -0.663333,0.23 -1.09,0.23 z M 63.52,3.04 v 0 c 0.64,0 1.136667,0.1033333 1.49,0.31 0.346667,0.2133333 0.6,0.4766667 0.76,0.79 0.16,0.32 0.253333,0.6666667 0.28,1.04 0.02667,0.3733333 0.04,0.7266667 0.04,1.06 v 0 4.26 H 63.62 V 10.49 L 63.6,6.75 C 63.6,6.2833333 63.506667,5.9 63.32,5.6 63.133333,5.3 62.843333,5.15 62.45,5.15 v 0 c -0.293333,0 -0.53,0.066667 -0.71,0.2 -0.18,0.1266667 -0.316667,0.29 -0.41,0.49 -0.09333,0.2066667 -0.15,0.4266667 -0.17,0.66 -0.02667,0.2333333 -0.04,0.45 -0.04,0.65 v 0 3.35 H 58.63 V 10.49 H 58.62 V 6.73 C 58.62,6.2633333 58.52667,5.8833333 58.34,5.59 58.153333,5.29 57.863333,5.14 57.47,5.14 v 0 c -0.3,0 -0.536667,0.063333 -0.71,0.19 -0.173333,0.1333333 -0.3,0.3 -0.38,0.5 -0.08667,0.2 -0.14,0.4166667 -0.16,0.65 -0.02667,0.2333333 -0.04,0.4533333 -0.04,0.66 v 0 3.36 H 53.65 V 3.22 h 2.07 l 0.25,1.33 0.12,-0.23 C 56.17,4.1666667 56.306667,3.9933333 56.5,3.8 56.7,3.6066667 56.97,3.4333333 57.31,3.28 57.65,3.12 58.08,3.04 58.6,3.04 v 0 c 0.46,0 0.84,0.08 1.14,0.24 0.3,0.1533333 0.536667,0.3233333 0.71,0.51 0.18,0.18 0.306667,0.34 0.38,0.48 0.07333,0.14 0.11,0.1966667 0.11,0.17 v 0 C 60.96,4.413333 61.01333,4.3233333 61.1,4.17 61.18,4.0233333 61.316667,3.8666667 61.51,3.7 61.703333,3.5266667 61.963333,3.3733333 62.29,3.24 62.616667,3.1066667 63.026667,3.04 63.52,3.04 Z M 73.91,8.57 V 10.5 H 67.77 V 1.34 h 2.64 v 7.23 z m 5.15,2.08 v 0 c -0.886667,0 -1.62,-0.113333 -2.2,-0.34 C 76.28,10.083333 75.82,9.79 75.48,9.43 75.14,9.07 74.903333,8.6633333 74.77,8.21 74.63,7.7566667 74.56,7.3066667 74.56,6.86 v 0 c 0,-0.4466667 0.07,-0.8966667 0.21,-1.35 0.133333,-0.4533333 0.353333,-0.8633333 0.66,-1.23 0.3,-0.3733333 0.696667,-0.6733333 1.19,-0.9 0.486667,-0.2266667 1.08,-0.34 1.78,-0.34 v 0 c 0.72,0 1.323333,0.1133333 1.81,0.34 0.48,0.2266667 0.866667,0.5266667 1.16,0.9 0.286667,0.3666667 0.49,0.7766667 0.61,1.23 0.126667,0.4533333 0.19,0.9033333 0.19,1.35 v 0 0.7 h -5.04 c 0.0067,0.1133333 0.05,0.25 0.13,0.41 0.08,0.1666667 0.203333,0.3233333 0.37,0.47 0.166667,0.14 0.383333,0.2633333 0.65,0.37 0.266667,0.1 0.59,0.15 0.97,0.15 v 0 c 0.36,0 0.686667,-0.03 0.98,-0.09 0.293333,-0.06 0.543333,-0.1266667 0.75,-0.2 v 0 c 0.24,-0.093333 0.45,-0.1966667 0.63,-0.31 v 0 1.71 c 0,0.0067 -0.07333,0.04 -0.22,0.1 -0.146667,0.06 -0.336667,0.126667 -0.57,0.2 -0.24,0.06667 -0.513333,0.13 -0.82,0.19 -0.313333,0.06 -0.626667,0.09 -0.94,0.09 z M 77.13,6.13 H 79.9 C 79.9,5.97 79.876667,5.8033333 79.83,5.63 79.783333,5.45 79.703333,5.2866667 79.59,5.14 79.476667,4.9866667 79.333333,4.8633333 79.16,4.77 78.98,4.67 78.76,4.62 78.5,4.62 v 0 c -0.26,0 -0.48,0.05 -0.66,0.15 -0.18,0.093333 -0.32,0.2166667 -0.42,0.37 -0.1,0.1466667 -0.173333,0.31 -0.22,0.49 -0.04667,0.1733333 -0.07,0.34 -0.07,0.5 z M 90.47,5.77 v 4.73 h -2 L 88.21,9.39 c -0.293333,0.44 -0.623333,0.76 -0.99,0.96 -0.366667,0.2 -0.806667,0.3 -1.32,0.3 v 0 c -0.36,0 -0.706667,-0.04333 -1.04,-0.13 C 84.526667,10.43333 84.236667,10.303333 83.99,10.13 83.736667,9.9566667 83.533333,9.74 83.38,9.48 83.233333,9.22 83.16,8.9166667 83.16,8.57 v 0 c -0.0067,-0.4666667 0.06,-0.86 0.2,-1.18 0.146667,-0.3133333 0.35,-0.5733333 0.61,-0.78 0.253333,-0.2066667 0.546667,-0.3666667 0.88,-0.48 0.34,-0.1133333 0.693333,-0.19 1.06,-0.23 0.366667,-0.04 0.74,-0.06 1.12,-0.06 0.38,0.00667 0.736667,0.02 1.07,0.04 v 0 -0.04 C 88.1,5.4733333 88.003333,5.2033333 87.81,5.03 87.623333,4.8566667 87.386667,4.7466667 87.1,4.7 86.813333,4.6533333 86.5,4.6566667 86.16,4.71 85.82,4.7633333 85.5,4.83 85.2,4.91 84.906667,4.9966667 84.65,5.0833333 84.43,5.17 84.216667,5.25 84.096667,5.3 84.07,5.32 v 0 -1.74 C 84.0767,3.57333 84.16667,3.543333 84.34,3.49 84.513333,3.43 84.73,3.3666667 84.99,3.3 85.256667,3.24 85.546667,3.18 85.86,3.12 86.18,3.066667 86.493333,3.04 86.8,3.04 v 0 c 0.306667,0 0.67,0.036667 1.09,0.11 0.42,0.073333 0.823333,0.21 1.21,0.41 0.38,0.2 0.703333,0.48 0.97,0.84 0.266667,0.3533333 0.4,0.81 0.4,1.37 z M 88.09,7.52 V 7.25 c -0.306667,0 -0.613333,0.00333 -0.92,0.01 -0.3,0.00667 -0.576667,0.033333 -0.83,0.08 -0.246667,0.053333 -0.443333,0.1433333 -0.59,0.27 -0.146667,0.1266667 -0.22,0.31 -0.22,0.55 v 0 c 0,0.26 0.07667,0.4633333 0.23,0.61 0.16,0.1466667 0.34,0.22 0.54,0.22 v 0 c 0.26,0 0.5,-0.036667 0.72,-0.11 0.22,-0.08 0.406667,-0.1866667 0.56,-0.32 0.16,-0.1333333 0.283333,-0.29 0.37,-0.47 0.09333,-0.1733333 0.14,-0.3633333 0.14,-0.57 z m 8.62,3.13 v 0 c -0.36,0 -0.683333,-0.06 -0.97,-0.18 -0.286667,-0.12 -0.533333,-0.253333 -0.74,-0.4 v 0 C 94.76,9.8966667 94.556667,9.7 94.39,9.48 v 0 2.67 H 91.87 V 3.22 h 2.1 l 0.36,0.94 c 0.166667,-0.2066667 0.366667,-0.3933333 0.6,-0.56 v 0 c 0.2,-0.14 0.446667,-0.27 0.74,-0.39 0.293333,-0.1133333 0.64,-0.17 1.04,-0.17 v 0 c 0.553333,0 1.036667,0.1 1.45,0.3 0.413333,0.2 0.76,0.4666667 1.04,0.8 0.28,0.34 0.493333,0.7366667 0.64,1.19 0.146667,0.4533333 0.22,0.93 0.22,1.43 v 0 c 0,0.5066667 -0.07333,0.9933333 -0.22,1.46 -0.146667,0.4666667 -0.36,0.88 -0.64,1.24 -0.28,0.3666667 -0.626667,0.656667 -1.04,0.87 -0.413333,0.213333 -0.896667,0.32 -1.45,0.32 z m -0.8,-5.71 v 0 c -0.166667,0 -0.34,0.026667 -0.52,0.08 -0.18,0.053333 -0.346667,0.1466667 -0.5,0.28 -0.146667,0.1333333 -0.266667,0.3233333 -0.36,0.57 -0.09333,0.24 -0.14,0.55 -0.14,0.93 v 0 c 0,0.3866667 0.04667,0.7033333 0.14,0.95 0.09333,0.2466667 0.213333,0.4433333 0.36,0.59 0.153333,0.14 0.32,0.24 0.5,0.3 0.18,0.053333 0.353333,0.08 0.52,0.08 v 0 c 0.173333,0 0.346667,-0.026667 0.52,-0.08 0.18,-0.06 0.343333,-0.16 0.49,-0.3 0.14,-0.1466667 0.256667,-0.3433333 0.35,-0.59 0.09333,-0.2466667 0.14,-0.5633333 0.14,-0.95 v 0 C 97.41,6.42 97.363333,6.11 97.27,5.87 97.176667,5.6233333 97.06,5.4333333 96.92,5.3 96.773333,5.1666667 96.61,5.0733333 96.43,5.02 96.256667,4.9666667 96.083333,4.94 95.91,4.94 Z"
         id="path2" /><text
         xml:space="preserve"
         style="font-style:normal;font-variant:normal;font-weight:bold;font-stretch:normal;font-size:9.75417px;font-family:sans-serif;-inkscape-font-specification:'sans-serif Bold';text-align:center;writing-mode:lr-tb;direction:ltr;text-anchor:middle;fill:#2b1c36;fill-opacity:1;stroke-width:0.747008;stroke-dasharray:none"
         x="49.800144"
         y="22.430016"
         id="text9"><tspan
           id="tspan9"
           style="fill:#2b1c36;fill-opacity:1;stroke-width:0.747008"
           x="49.800144"
           y="22.430016">EMR</tspan></text></g><g
       data-v-fde0c5aa=""
       id="047de209-dfad-4182-a420-580a98fedc52"
       stroke="none"
       fill="url(#500b972f-9590-4f45-ae23-6775c0a01154)"
       transform="matrix(2.7763459,0,0,2.7763459,457.59082,50.164086)"
       style="fill:url(#linearGradient9)"><path
         d="M 16,32 C 24.837,32 32,24.837 32,16 32,7.163 24.837,0 16,0 7.163,0 0,7.163 0,16 0,24.837 7.163,32 16,32 Z M 14.817,6.421 h 2 v 8.886 h 8.887 v 2 H 14.817 Z M 8.858,6.858 h 2 v 14.283 h 14.283 v 2 H 8.858 Z"
         id="path3-5"
         style="fill:url(#linearGradient8)" /></g></g></svg>
